<svg xmlns="http://www.w3.org/2000/svg" viewBox="0 0 600 400" width="600" height="400">
  <defs>
    <linearGradient id="sky" x1="0" y1="0" x2="0" y2="1">
      <stop offset="0%" stop-color="#374151"/>
      <stop offset="100%" stop-color="#44403c"/>
    </linearGradient>
  </defs>
  <rect width="600" height="400" fill="url(#sky)"/>
  <rect x="140" y="200" width="320" height="160" fill="#94a3b8"/>
  <polygon points="120,200 480,200 300,90" fill="#1f2937" />
  <circle cx="240" cy="155" r="10" fill="#1f2937" opacity="0.7"/><circle cx="320" cy="170" r="14" fill="#1f2937" opacity="0.6"/><circle cx="380" cy="140" r="8"  fill="#1f2937" opacity="0.7"/><path d="M260 260 L280 300 L240 300 Z" fill="#1f2937" opacity="0.5"/>
  <rect x="280" y="270" width="40" height="90" fill="#475569"/>
  <rect x="180" y="240" width="50" height="50" fill="#1f2937"/>
  <rect x="370" y="240" width="50" height="50" fill="#1f2937"/>
  <rect x="0" y="360" width="600" height="40" fill="#1c1917"/>
  <rect x="20" y="20" width="110" height="38" rx="8" fill="#ef4444"/>
  <text x="75" y="46" font-family="Inter, Arial" font-size="20" font-weight="900" fill="#fff" text-anchor="middle">BEFORE</text>
  <rect x="0" y="360" width="600" height="40" fill="rgba(0,0,0,0.55)"/>
  <text x="300" y="388" font-family="Inter, Arial" font-size="18" font-weight="700" fill="#fff" text-anchor="middle">Siding Repair</text>
</svg>